<svg xmlns="http://www.w3.org/2000/svg" viewBox="0 0 1280 720" width="1280" height="720" role="img" aria-label="Рыбалити 2.0 — скриншот игры">
  <defs>
    <linearGradient id="sky" x1="0" y1="0" x2="0" y2="1"><stop offset="0" stop-color="#1b3a52"/><stop offset=".6" stop-color="#3d6f8f"/><stop offset="1" stop-color="#7fb4c9"/></linearGradient>
    <linearGradient id="water" x1="0" y1="0" x2="0" y2="1"><stop offset="0" stop-color="#2e6270"/><stop offset=".4" stop-color="#1c4856"/><stop offset="1" stop-color="#0c2430"/></linearGradient>
    <radialGradient id="sun" cx="50%" cy="50%" r="50%"><stop offset="0" stop-color="#ffeaa0"/><stop offset=".3" stop-color="#ffd27a" stop-opacity=".5"/><stop offset="1" stop-color="#ffd27a" stop-opacity="0"/></radialGradient>
    <radialGradient id="vig" cx="50%" cy="52%" r="72%"><stop offset="0" stop-color="#000" stop-opacity="0"/><stop offset="1" stop-color="#000" stop-opacity=".26"/></radialGradient>
    <linearGradient id="neon" x1="0" y1="0" x2="0" y2="1"><stop offset="0" stop-color="#39c9ff" stop-opacity=".55"/><stop offset="1" stop-color="#39c9ff" stop-opacity="0"/></linearGradient>
    <linearGradient id="wl" x1="0" y1="0" x2="0" y2="1"><stop offset="0" stop-color="#eafdff"/><stop offset=".5" stop-color="#7fdcff"/><stop offset="1" stop-color="#2b8fd4"/></linearGradient>
    <linearGradient id="gold" x1="0" y1="0" x2="0" y2="1"><stop offset="0" stop-color="#ffe9a0"/><stop offset="1" stop-color="#f4a51f"/></linearGradient>
  </defs>

  <rect x="0" y="0" width="1280" height="302" fill="url(#sky)"/>
  <circle cx="998" cy="150" r="120" fill="url(#sun)"/>
  <circle cx="998" cy="150" r="30" fill="#ffe7a0"/>

  <g fill="#eef6fb" opacity=".5">
    <g transform="translate(250,120)"><ellipse cx="0" cy="0" rx="74" ry="26"/><ellipse cx="-48" cy="10" rx="34" ry="22"/><ellipse cx="50" cy="8" rx="40" ry="24"/><ellipse cx="14" cy="-18" rx="34" ry="22"/></g>
    <g transform="translate(770,128) scale(.8)"><ellipse cx="0" cy="0" rx="74" ry="26"/><ellipse cx="-48" cy="10" rx="34" ry="22"/><ellipse cx="50" cy="8" rx="40" ry="24"/><ellipse cx="14" cy="-18" rx="34" ry="22"/></g>
  </g>

  <path d="M0 302 L0 250 Q160 214 340 244 Q540 200 760 240 Q1000 206 1280 246 L1280 302 Z" fill="#3a566a"/>
  <path d="M0 302 L0 268 Q220 244 460 270 Q720 240 980 272 Q1140 256 1280 274 L1280 302 Z" fill="#46647a"/>
  <rect x="0" y="284" width="1280" height="20" fill="#dce8f0" opacity=".18"/>

  <g fill="#16323a">
    <g transform="translate(40,302)"><path d="M-20 0 L8 -44 L36 0 Z"/></g>
    <g transform="translate(150,302)"><path d="M-22 0 L6 -52 L34 0 Z"/></g>
    <g transform="translate(900,302)"><path d="M-22 0 L6 -48 L34 0 Z"/></g>
    <g transform="translate(1040,302)"><path d="M-20 0 L8 -42 L36 0 Z"/></g>
    <g transform="translate(1180,302)"><path d="M-22 0 L6 -50 L34 0 Z"/></g>
    <rect x="0" y="292" width="1280" height="10"/>
  </g>

  <g transform="translate(282,178)">
    <rect x="0" y="0" width="150" height="124" fill="#212c34"/>
    <rect x="0" y="0" width="150" height="62" fill="#2a3640"/>
    <polygon points="0,0 30,-7 52,-1 82,-8 112,-2 150,-6 150,0" fill="#12181f"/>
    <g fill="#ffd278"><rect x="16" y="14" width="16" height="12"/><rect x="74" y="14" width="16" height="12"/><rect x="44" y="44" width="16" height="12"/><rect x="104" y="74" width="16" height="12"/><rect x="16" y="100" width="16" height="12"/></g>
    <g fill="#0a0e12"><rect x="44" y="14" width="16" height="12"/><rect x="104" y="14" width="16" height="12"/><rect x="16" y="44" width="16" height="12"/><rect x="74" y="74" width="16" height="12"/><rect x="44" y="100" width="16" height="12"/><rect x="104" y="44" width="16" height="12"/></g>
    <g fill="#162028"><rect x="74" y="44" width="16" height="12"/><rect x="16" y="74" width="16" height="12"/><rect x="44" y="74" width="16" height="12"/><rect x="74" y="100" width="16" height="12"/></g>
    <text x="75" y="-14" text-anchor="middle" font-family="'Arial Black',Arial,sans-serif" font-size="19" font-weight="900" fill="#bff0ff">MTProto</text>
    <text x="75" y="2" text-anchor="middle" font-family="Arial,sans-serif" font-size="12" font-weight="700" fill="#ff6b6b" opacity=".5">NO VACANCIES</text>
  </g>

  <rect x="0" y="302" width="1280" height="418" fill="url(#water)"/>
  <rect x="311" y="304" width="92" height="70" fill="url(#neon)" opacity=".5"/>
  <g stroke="#bfe9ff" stroke-width="2" opacity=".12">
    <line x1="560" y1="330" x2="720" y2="330"/><line x1="540" y1="370" x2="740" y2="370"/><line x1="520" y1="420" x2="760" y2="420"/><line x1="500" y1="480" x2="780" y2="480"/><line x1="470" y1="560" x2="810" y2="560"/>
  </g>

  <g>
    <ellipse cx="150" cy="660" rx="58" ry="24" fill="#225036"/>
    <path d="M150 660 L92 650 L92 670 Z" fill="#0c1c12" opacity=".5"/>
    <g fill="#f7b8d6"><ellipse cx="166" cy="650" rx="6" ry="4"/><ellipse cx="176" cy="654" rx="6" ry="4"/><ellipse cx="172" cy="662" rx="6" ry="4"/><ellipse cx="160" cy="662" rx="6" ry="4"/><ellipse cx="156" cy="654" rx="6" ry="4"/></g>
    <circle cx="166" cy="656" r="4" fill="#ffe27a"/>
    <ellipse cx="980" cy="640" rx="44" ry="18" fill="#2a5e3e"/>
    <path d="M980 640 L938 632 L938 648 Z" fill="#0c1c12" opacity=".5"/>
  </g>

  <path d="M1255 216 Q950 300 642 470" fill="none" stroke="#ebf5ff" stroke-width="2" opacity=".6"/>
  <g transform="translate(642,470)">
    <polygon points="0,18 -5,0 5,0" fill="#e23b3b"/>
    <path d="M-6 -3 a6 6 0 0 1 12 0 Z" fill="#f4f4f4"/>
    <path d="M-6 -3 a6 6 0 0 0 12 0 Z" fill="#e23b3b"/>
    <line x1="0" y1="-9" x2="0" y2="-16" stroke="#222" stroke-width="1.5"/>
    <circle cx="0" cy="-17" r="2.4" fill="#ffcf3b"/>
  </g>

  <g>
    <path d="M1300 760 Q1140 470 1255 216" fill="none" stroke="#3a2d5a" stroke-width="17" stroke-linecap="round"/>
    <path d="M1300 760 Q1140 470 1255 216" fill="none" stroke="#cdd4da" stroke-width="6" opacity=".4" stroke-linecap="round"/>
    <circle cx="1152" cy="547" r="22" fill="#0e1318" stroke="#05080a" stroke-width="4"/>
    <circle cx="1152" cy="547" r="14" fill="#2a333c"/>
    <line x1="1152" y1="547" x2="1166" y2="556" stroke="#aab4bd" stroke-width="3"/>
    <circle cx="1166" cy="556" r="4" fill="#cfd6dc"/>
  </g>

  <rect x="0" y="0" width="1280" height="720" fill="url(#vig)"/>

  <g font-family="'Segoe UI',Arial,sans-serif">
    <rect x="16" y="12" width="134" height="58" rx="12" fill="#081622" opacity=".75"/>
    <circle cx="36" cy="40" r="9" fill="url(#gold)" stroke="#b87a10" stroke-width="1.5"/>
    <text x="52" y="48" font-size="24" font-weight="700" fill="#ffe27a">1 240</text>
    <text x="52" y="63" font-size="11" fill="#cfe6ff">очков</text>

    <g transform="translate(478,16)">
      <rect x="-12" y="-4" width="324" height="78" rx="12" fill="#081622" opacity=".75"/>
      <g transform="translate(70,4) scale(.62)">
        <path d="M10 70 q18 -9 36 0 t36 0 t36 0 t36 0 t36 0 t36 0 t36 0" fill="none" stroke="#2b6f95" stroke-width="3" opacity=".55"/>
        <g transform="translate(224,16) rotate(-18)"><ellipse cx="0" cy="0" rx="13" ry="6.5" fill="#ffd24a" stroke="#08202e" stroke-width="1.5"/><path d="M-12 0 l-9 -6 l3 6 l-3 6 z" fill="#ffd24a" stroke="#08202e" stroke-width="1.5"/></g>
        <text x="8" y="56" font-family="'Arial Black',Arial,sans-serif" font-size="40" font-weight="900" paint-order="stroke" stroke="#08202e" stroke-width="3" fill="url(#wl)">РЫБАЛИТИ</text>
        <rect x="264" y="34" width="78" height="40" rx="10" fill="url(#gold)" stroke="#b87a10" stroke-width="2"/>
        <text x="303" y="63" text-anchor="middle" font-family="'Arial Black',Arial,sans-serif" font-size="25" font-weight="900" fill="#3a2406">2.0</text>
      </g>
      <text x="150" y="68" text-anchor="middle" font-size="12" fill="#9fd6ff">Ночь · крупняк клюёт!</text>
    </g>

    <g transform="translate(1140,12)">
      <rect x="0" y="0" width="124" height="50" rx="12" fill="#081622" opacity=".75"/>
      <text x="14" y="23" font-size="13" font-weight="700" fill="#9fe6ff">Карбоновая</text>
      <text x="14" y="41" font-size="13" font-weight="700" fill="#9fe6ff">Воблер x4</text>
    </g>

    <g transform="translate(1112,84)">
      <rect x="0" y="0" width="152" height="36" rx="10" fill="#081622" opacity=".7"/>
      <text x="76" y="23" text-anchor="middle" font-size="14" font-weight="600" fill="#cfe6ff">Магазин</text>
      <rect x="0" y="44" width="152" height="36" rx="10" fill="#081622" opacity=".7"/>
      <text x="76" y="67" text-anchor="middle" font-size="14" font-weight="600" fill="#cfe6ff">Улов</text>
    </g>

    <g transform="translate(516,128)">
      <rect x="0" y="0" width="248" height="34" rx="17" fill="#3c280b" opacity=".75"/>
      <text x="124" y="22" text-anchor="middle" font-size="13" font-weight="700" fill="#ffe9a0">Особая рыба: <tspan fill="#fff0b0">Кракен</tspan></text>
    </g>

    <g transform="translate(486,660)">
      <rect x="0" y="0" width="308" height="38" rx="19" fill="#081622" opacity=".6"/>
      <text x="154" y="24" text-anchor="middle" font-size="15" fill="#dff1ff">Жди поклёвки...</text>
    </g>

    <g transform="translate(1126,668)">
      <rect x="0" y="0" width="138" height="36" rx="10" fill="#081622" opacity=".7"/>
      <text x="69" y="23" text-anchor="middle" font-size="14" font-weight="600" fill="#cfe6ff">Атлас рыб</text>
    </g>
  </g>
</svg>
